PathFileType	4	(X/Y/Z)	D:/2025/Ayumi_22_01_2025/22-01-2025/static_00_hjc.trc	
DataRate	CameraRate	NumFrames	NumMarkers	Units	OrigDataRate	OrigDataStartFrame	OrigNumFrames	
200.00	200.00	4	66	mm	200.00	8	352	
Frame#	Time	FHD			LBHD			RBHD			LBAR			RASI			RSACR			LSACR			LASI			USACR			C7			CLAV			T10			RSHO			LSHO			LTHI1			LTHI3			LTHI2			LLFC			LTIB1			LTIB2			LTIB3			LMMAL			LLMAL			LHEE			LMT1			LMT5			LMT3			RTHI1			RTHI2			RTHI3			RLFC			RMFC			RTIB1			RTIB3			RTIB2			RLMAL			RMMAL			RHEE			RMT5			RMT1			RMT3			LMEP			LLEP			LDUPA			LMUPA			LUUPA			LUL			LRAD			LRFIN			RUL			RRAD			RUFIN			RMEP			RLEP			RMUPA			RDUPA			RUUPA			LMFC			RBAR			*59			LAJC			RAJC			LKJC			RKJC			LHJC			RHJC			
		X1	Y1	Z1	X2	Y2	Z2	X3	Y3	Z3	X4	Y4	Z4	X5	Y5	Z5	X6	Y6	Z6	X7	Y7	Z7	X8	Y8	Z8	X9	Y9	Z9	X10	Y10	Z10	X11	Y11	Z11	X12	Y12	Z12	X13	Y13	Z13	X14	Y14	Z14	X15	Y15	Z15	X16	Y16	Z16	X17	Y17	Z17	X18	Y18	Z18	X19	Y19	Z19	X20	Y20	Z20	X21	Y21	Z21	X22	Y22	Z22	X23	Y23	Z23	X24	Y24	Z24	X25	Y25	Z25	X26	Y26	Z26	X27	Y27	Z27	X28	Y28	Z28	X29	Y29	Z29	X30	Y30	Z30	X31	Y31	Z31	X32	Y32	Z32	X33	Y33	Z33	X34	Y34	Z34	X35	Y35	Z35	X36	Y36	Z36	X37	Y37	Z37	X38	Y38	Z38	X39	Y39	Z39	X40	Y40	Z40	X41	Y41	Z41	X42	Y42	Z42	X43	Y43	Z43	X44	Y44	Z44	X45	Y45	Z45	X46	Y46	Z46	X47	Y47	Z47	X48	Y48	Z48	X49	Y49	Z49	X50	Y50	Z50	X51	Y51	Z51	X52	Y52	Z52	X53	Y53	Z53	X54	Y54	Z54	X55	Y55	Z55	X56	Y56	Z56	X57	Y57	Z57	X58	Y58	Z58	X59	Y59	Z59	X60	Y60	Z60	X61	Y61	Z61	X62	Y62	Z62	X63	Y63	Z63	X64	Y64	Z64	X65	Y65	Z65	X66	Y66	Z66	

1	0.000	110.36213	967.77191	1611.81348	128.66098	907.42767	1594.61755	146.75903	1038.44910	1583.78882	1041.00891	2031.60376	20.02746	163.90179	1103.87622	927.51849	324.05728	1016.94202	959.17249	321.09387	942.99689	960.72266	150.55493	866.99207	912.51740	316.25790	980.96082	970.46112	299.16370	964.25720	1401.36108	164.08295	980.99060	1329.91321	321.48849	974.89050	1117.81189	237.60490	1113.43579	1406.64001	217.84402	830.41547	1398.08911	238.28145	808.50458	606.53772	262.64005	819.72217	546.08386	212.10046	818.88226	545.93091	230.42914	841.56714	449.46643	256.95511	818.89154	233.85837	307.13293	815.83563	232.45815	280.21658	826.00482	173.54446	284.28433	914.78333	71.77992	297.89972	843.43726	69.58356	341.01358	881.76422	33.93501	143.86273	873.68994	39.17826	169.41566	796.96765	26.87663	144.85970	837.71912	37.29420	258.46277	1157.72290	608.02991	230.54964	1149.98682	549.42242	282.19873	1148.22351	547.71826	240.72195	1126.27332	455.25482	254.60838	1017.83179	451.10828	271.71494	1160.35522	276.83392	294.53625	1156.02625	215.21391	322.14307	1160.89441	274.69443	307.59262	1135.15259	73.53764	276.90350	1064.14966	75.73806	351.60059	1095.37122	28.33582	178.75528	1179.44238	29.37891	151.09824	1115.59436	37.77731	156.16264	1148.32141	36.02683	265.73425	1374.26172	1276.43921	303.92783	1377.97791	1337.22998	313.95999	1278.07642	1350.81543	310.64407	1217.65906	1363.32458	329.68774	1208.02722	1317.81177	235.22751	326.44092	1328.64392	171.39177	319.15265	1347.11731	182.99757	245.04224	1343.71228	281.82990	1611.93127	1336.74609	221.50301	1612.40088	1352.32642	220.27654	1686.31384	1349.10754	205.67293	581.20923	1275.54395	256.68250	563.38904	1326.57349	255.33241	643.87158	1359.34460	285.04172	640.13611	1319.72253	271.20731	703.70038	1366.20117	244.00713	940.23859	441.08527							291.09203	879.11029	70.68174	292.24806	1099.65112	74.63785	237.21813	890.90286	445.27585	247.66517	1072.05255	453.18155	235.82440	904.99448	936.62003	243.97954	1060.40912	943.34549 
2	0.005	110.37247	967.72754	1611.90845	128.66856	907.43915	1594.67529	146.78398	1038.44177	1583.82996	1041.03723	2031.62732	20.01462	163.89839	1103.83459	927.50446	324.03088	1016.91107	959.19476	321.08749	942.97131	960.69611	150.54314	866.96240	912.49243	316.25342	980.95221	970.42682	299.11798	964.24597	1401.38403	164.04901	980.99506	1329.90173	321.48651	974.87299	1117.80396	237.60425	1113.44434	1406.60522	217.60371	830.22174	1398.38855	238.23909	808.49854	606.53058	262.60629	819.70374	546.07410	212.08519	818.84857	545.92780	230.40236	841.54272	449.45636	256.99100	818.89142	233.83592	307.13159	815.82599	232.45126	280.22226	826.00085	173.54053	284.29730	914.77399	71.78781	297.89349	843.43152	69.59753	341.02179	881.82770	33.89965	143.86275	873.68713	39.19061	169.42383	796.97412	26.85766	144.84668	837.71222	37.29267	258.43497	1157.70532	608.03326	230.53047	1149.99365	549.42151	282.19321	1148.19958	547.70953	240.72876	1126.26477	455.22882	254.60263	1017.81183	451.11151	271.72272	1160.32825	276.83884	294.53772	1156.00256	215.21172	322.15393	1160.86963	274.68237	307.61755	1135.14709	73.51705	276.90091	1064.12488	75.71983	351.60095	1095.37183	28.35356	178.75772	1179.43860	29.36666	151.09970	1115.58594	37.76157	156.17261	1148.31689	36.02597	265.72504	1374.24927	1276.36060	303.89230	1377.99268	1337.15649	313.91986	1278.10913	1350.74011	310.61050	1217.69031	1363.24976	329.66513	1208.03125	1317.77295	235.07214	326.44598	1328.59985	171.16084	319.24222	1347.15491	182.87097	245.05365	1343.62305	281.82199	1611.95715	1336.54871	221.48521	1612.42444	1352.09607	220.22318	1686.33020	1348.85950	205.56569	581.23175	1275.54419	256.58032	563.40051	1326.53186	255.24078	643.88623	1359.29773	284.95517	640.12909	1319.70569	271.11566	703.69360	1366.17529	243.96526	940.20038	441.11365							291.09540	879.10275	70.69267	292.25923	1099.63599	74.61844	237.18381	890.87155	445.28500	247.66570	1072.03830	453.17017	235.81532	904.96686	936.59427	243.96464	1060.37283	943.34961 
3	0.010	110.40743	967.76898	1611.94507	128.67921	907.44067	1594.75513	146.82265	1038.46313	1583.84949	1041.01245	2031.59412	20.01994	163.88153	1103.80066	927.52277	324.03122	1016.88593	959.17969	321.06674	942.93799	960.69452	150.54396	866.93658	912.47656	316.26801	980.93787	970.39532	299.08194	964.24548	1401.40125	164.03525	981.00800	1329.89319	321.46536	974.85168	1117.78613	237.59111	1113.45776	1406.56323	217.57100	830.24249	1398.38843	238.20641	808.48413	606.50745	262.60529	819.69257	546.05750	212.09421	818.69019	545.94818	230.39288	841.52991	449.44516	256.97656	818.91669	233.84395	307.09882	815.81921	232.43805	280.20032	826.00366	173.52277	284.32010	914.76184	71.78114	297.88818	843.43695	69.59329	341.01663	881.76624	33.91956	143.85854	873.68335	39.16907	169.42879	796.98474	26.85139	144.86011	837.72736	37.25903	258.47388	1157.67896	608.01306	230.53737	1149.94641	549.41309	282.20532	1148.16382	547.70953	240.70313	1126.25354	455.25128	254.61571	1017.78357	451.10095	271.73260	1160.31104	276.82602	294.56274	1155.97278	215.18773	322.16241	1160.86218	274.66818	307.62012	1135.12329	73.50629	276.89526	1064.12683	75.72494	351.60446	1095.37891	28.33532	178.77663	1179.44910	29.33703	151.10684	1115.59363	37.73695	156.17023	1148.31982	36.01484	265.71097	1374.23486	1276.28589	303.85046	1377.99731	1337.08130	313.90167	1278.13281	1350.65576	310.58795	1217.73975	1363.12732	329.62457	1208.04089	1317.75220	234.93449	326.45135	1328.58679	170.99387	319.24982	1347.08777	182.59023	245.25139	1343.34460	281.82126	1611.97058	1336.38416	221.43442	1612.45496	1351.93665	220.20461	1686.35754	1348.61951	205.48866	581.23438	1275.54224	256.49036	563.42139	1326.47681	255.16777	643.90704	1359.25439	284.85449	640.14008	1319.68213	271.03891	703.71655	1366.13013	243.95868	940.17847	441.13144							291.10414	879.09940	70.68722	292.25769	1099.62506	74.61562	237.17578	890.85419	445.28830	247.65942	1072.01855	453.17612	235.80535	904.93729	936.58554	243.95638	1060.34329	943.35123 
4	0.015	110.43365	967.75146	1612.00171	128.70973	907.45825	1594.78833	146.84793	1038.47327	1583.89160	1041.00085	2031.57764	20.05682	163.87425	1103.78406	927.50928	324.01666	1016.86554	959.14795	321.04596	942.91180	960.68964	150.52371	866.90894	912.46796	316.25809	980.91925	970.36786	299.03763	964.24811	1401.41357	164.01398	981.01807	1329.88464	321.48459	974.82977	1117.75159	237.58575	1113.45959	1406.54639	217.54294	830.26392	1398.37085	238.22539	808.46252	606.49182	262.60632	819.67841	546.05402	212.05391	818.82507	545.92468	230.38051	841.52936	449.44031	256.98779	818.92035	233.82591	307.07489	815.84125	232.42540	280.21255	825.99207	173.51393	284.31769	914.76550	71.77099	297.89343	843.44299	69.58048	341.00156	881.71649	33.93324	143.86366	873.69855	39.16412	169.42719	796.98541	26.83805	144.85315	837.71454	37.25096	258.45969	1157.67883	608.00775	230.56648	1149.95178	549.38910	282.19562	1148.16309	547.70074	240.70313	1126.23022	455.24976	255.09544	1017.93872	450.70392	271.73477	1160.29663	276.84915	294.56464	1155.96594	215.17323	322.19315	1160.85803	274.64105	307.62714	1135.13257	73.49162	276.90082	1064.14661	75.70645	351.60733	1095.37817	28.35393	178.79037	1179.44910	29.32408	151.10326	1115.57983	37.74800	156.18391	1148.31604	36.00677	265.70645	1374.22363	1276.22791	303.79236	1378.00244	1337.05310	313.89148	1278.15259	1350.58276	310.56619	1217.75903	1363.06372	329.60419	1208.04211	1317.73279	234.80502	326.45959	1328.58191	170.90350	319.21237	1347.04248	182.38614	245.29060	1343.27881	281.80978	1611.98730	1336.25110	221.70883	1612.48389	1351.51550	220.18819	1686.35974	1348.45422	205.39900	581.22974	1275.55469	256.40268	563.41534	1326.47559	255.09544	643.91846	1359.24036	284.76892	640.14636	1319.65186	270.99255	703.73779	1366.06641	243.92168	940.16663	441.13257							291.10556	879.10425	70.67574	292.26398	1099.63959	74.59904	237.15109	890.84799	445.28644	247.89928	1072.08447	452.97684	235.78484	904.91037	936.57880	243.94546	1060.32480	943.32861 
